<svg class="woosq-normal-icon" enable-background="new 0 0 24 24" viewBox="0 0 24 24" width="24" height="24" xmlns="http://www.w3.org/2000/svg"><g id="XMLID_00000087401367235249085360000000687508708724145085_"><path d="m22 12 .66-.34c.01-.01.01-.01.01-.01.11.22.11.48 0 .7h-.01l-.35-.19c-.03-.01-.06-.03-.09-.05z"/><path d="m15.75 12c0 2.07-1.68 3.75-3.75 3.75s-3.75-1.68-3.75-3.75 1.68-3.75 3.75-3.75 3.75 1.68 3.75 3.75zm-3.75 2.25c1.24 0 2.25-1.01 2.25-2.25s-1.01-2.25-2.25-2.25-2.25 1.01-2.25 2.25 1.01 2.25 2.25 2.25z"/><path d="m5.15 14.98c1.64 1.68 3.96 3.27 6.85 3.27s5.21-1.59 6.85-3.27c.81-.84 1.44-1.68 1.86-2.3.18-.28.32-.51.43-.68-.11-.17-.25-.4-.43-.68-.42-.62-1.05-1.46-1.86-2.3-1.64-1.68-3.96-3.27-6.85-3.27s-5.21 1.59-6.85 3.27c-.81.84-1.44 1.68-1.86 2.3-.18.28-.32.51-.43.68.11.17.25.4.43.68.42.62 1.05 1.46 1.86 2.3zm-3.81-3.33.01-.02c.01-.02.02-.04.04-.07.03-.06.07-.14.13-.24.12-.2.3-.49.52-.83.46-.69 1.14-1.6 2.04-2.51 1.77-1.82 4.45-3.73 7.92-3.73s6.15 1.91 7.92 3.73c.9.91 1.58 1.82 2.04 2.51.22.34.4.63.52.83.06.1.1.18.13.24.02.03.03.05.04.07l.01.02v.01l-.66.34.22.11.09.05.35.19-.01.02c-.01.02-.02.04-.04.07-.03.06-.07.14-.13.24-.12.2-.3.49-.52.83-.46.69-1.14 1.6-2.04 2.51-1.77 1.82-4.45 3.73-7.92 3.73s-6.15-1.91-7.92-3.73c-.9-.91-1.58-1.82-2.04-2.51-.22-.34-.4-.63-.52-.83-.06-.1-.1-.18-.13-.24-.02-.03-.03-.05-.04-.07l-.01-.02v-.01l.03-.01c.01-.01.03-.02.06-.03l.25-.13c.08-.05.19-.1.32-.17-.08-.04-.14-.07-.2-.1l-.13-.07c-.01-.01-.02-.01-.03-.02l-.17-.09c-.01 0-.02-.01-.03-.01l-.07-.04c-.01-.01-.01-.01-.01-.01z"/><path d="m1.34 12.34v.01h-.01c-.11-.22-.11-.48 0-.7h.01l.02.01s0 0 .01.01l.07.04c.01 0 .02.01.03.01l.17.09c.01.01.02.01.03.02l.13.07.2.1c-.13.07-.24.12-.32.17l-.25.13c-.03.01-.05.02-.06.03z"/></g></svg>