<svg class="cms-addtocart-icon" fill="none" height="512" width="512" viewBox="0 0 24 24" xmlns="http://www.w3.org/2000/svg"> <g fill="rgb(0,0,0)"> <path d="m4.97043 9.81038c.09776-1.02647.95988-1.81038 1.99099-1.81038h10.07718c1.0311 0 1.8932.78391 1.991 1.81038l.7619 8.00002c.1118 1.1742-.8116 2.1896-1.991 2.1896h-11.60098c-1.17948 0-2.10282-1.0154-1.99099-2.1896z" opacity=".15"/> <path clip-rule="evenodd" d="m8.64123 3.64124c.8908-.8908 2.09897-1.39124 3.35877-1.39124s2.4679.50045 3.3587 1.39124c.8908.8908 1.3913 2.09898 1.3913 3.35876v.25h.4097c1.4303 0 2.6218 1.09632 2.7405 2.52163l.6667 7.99997c.1336 1.6033-1.1316 2.9784-2.7405 2.9784h-11.65281c-1.60886 0-2.87411-1.3751-2.7405-2.9784l.66667-7.99997c.11877-1.42531 1.31025-2.52163 2.7405-2.52163h.40973v-.25c0-1.25978.50045-2.46796 1.39124-3.35876zm.10876 3.60876h6.50001v-.25c0-.86195-.3424-1.6886-.9519-2.2981-.6095-.60949-1.4362-.9519-2.2981-.9519-.862 0-1.6886.34241-2.29811.9519-.60949.6095-.9519 1.43615-.9519 2.2981zm-1.90973 1.5c-.65011 0-1.1917.49833-1.24568 1.14619l-.66667 8.00001c-.06073.7288.51438 1.3538 1.24568 1.3538h11.65281c.7313 0 1.3064-.625 1.2457-1.3538l-.6667-8.00001c-.054-.64786-.5956-1.14619-1.2457-1.14619zm1.15973 1.5c.41421 0 .75.3358.75.75v.01c0 .4142-.33579.75-.75.75s-.75-.3358-.75-.75v-.01c0-.4142.33579-.75.75-.75zm8.00001 0c.4142 0 .75.3358.75.75v.01c0 .4142-.3358.75-.75.75s-.75-.3358-.75-.75v-.01c0-.4142.3358-.75.75-.75z" fill-rule="evenodd"/> </g> </svg>