<svg class="woosq-hover-icon" fill="none" height="24" viewBox="0 0 24 24" width="24" xmlns="http://www.w3.org/2000/svg"><g clip-rule="evenodd" fill="rgb(0,0,0)" fill-rule="evenodd"><path d="m12 5c-6.36364 0-10 7-10 7s3.63636 7 10 7c6.3636 0 10-7 10-7s-3.6364-7-10-7zm3 7c0 1.6569-1.3431 3-3 3s-3-1.3431-3-3 1.3431-3 3-3 3 1.3431 3 3z" opacity=".15"/><path d="m2.86199 12c.10328.1737.24649.4047.42841.6759.42201.6289 1.0475 1.4661 1.8605 2.3008 1.63768 1.6813 3.95581 3.2733 6.8491 3.2733 2.8933 0 5.2114-1.592 6.8491-3.2733.813-.8347 1.4385-1.6719 1.8605-2.3008.1819-.2712.3251-.5022.4284-.6759-.1033-.1737-.2465-.4047-.4284-.6759-.422-.6289-1.0475-1.46611-1.8605-2.30079-1.6377-1.68136-3.9558-3.27331-6.8491-3.27331-2.89329 0-5.21142 1.59195-6.8491 3.27331-.813.83468-1.43849 1.67189-1.8605 2.30079-.18192.2712-.32513.5022-.42841.6759zm19.13801 0c.6656-.3457.6654-.346.6653-.3463l-.0014-.0026-.003-.0057-.01-.0188c-.0084-.0159-.0205-.0382-.0361-.0665-.0311-.0567-.0765-.1376-.136-.2393-.1187-.2032-.2938-.49-.5236-.8324-.4587-.68361-1.14-1.59639-2.0316-2.51171-1.7714-1.81864-4.4533-3.72669-7.9236-3.72669-3.47035 0-6.15222 1.90805-7.92363 3.72669-.89154.91532-1.57287 1.8281-2.03155 2.51171-.22979.3424-.4049.6292-.52367.8324-.05941.1017-.10481.1826-.13598.2393-.01559.0283-.02763.0506-.03609.0665l-.01.0188-.00299.0057-.00099.0019c-.00015.0003-.00065.0013.6649.347l-.66555-.3457c-.1126.2167-.1126.4747 0 .6914l.66555-.3457c-.66555.3457-.6657.3455-.66555.3457l.00065.0013.00099.0019.00299.0057.01.0188c.00846.0159.0205.0382.03609.0665.03117.0567.07657.1376.13598.2393.11877.2032.29388.49.52367.8324.45868.6836 1.14001 1.5964 2.03155 2.5117 1.77141 1.8187 4.45328 3.7267 7.92363 3.7267 3.4703 0 6.1522-1.908 7.9236-3.7267.8916-.9153 1.5729-1.8281 2.0316-2.5117.2298-.3424.4049-.6292.5236-.8324.0595-.1017.1049-.1826.136-.2393.0156-.0283.0277-.0506.0361-.0665l.01-.0188.003-.0057.001-.0019c.0002-.0003.0007-.0013-.6649-.347zm0 0 .6656.3457c.1125-.2167.1123-.4752-.0003-.692zm-19.33477.3464c-.00005.0001-.00005.0001 0 0zm9.33477-2.5964c-1.2426 0-2.25 1.0074-2.25 2.25s1.0074 2.25 2.25 2.25 2.25-1.0074 2.25-2.25-1.0074-2.25-2.25-2.25zm-3.75 2.25c0-2.07107 1.67893-3.75 3.75-3.75 2.0711 0 3.75 1.67893 3.75 3.75 0 2.0711-1.6789 3.75-3.75 3.75-2.07107 0-3.75-1.6789-3.75-3.75zm-5.58476-.3463c-.00005-.0001-.00005-.0001 0 0z"/></g></svg>