<svg class="woosw-added-svg" viewBox="0 0 24 24" fill="none" height="24" width="24" xmlns="http://www.w3.org/2000/svg"><g fill="rgb(0,0,0)"><path d="m4.3314 12.0474 7.6686 7.9526 7.6686-7.9526c.8525-.8841 1.3314-2.08311 1.3314-3.33335 0-2.6035-2.0352-4.71405-4.5457-4.71405-1.2056 0-2.3618.49666-3.2143 1.38071l-1.24 1.28596-1.24-1.28596c-.85251-.88405-2.00872-1.38071-3.21431-1.38071-2.51052 0-4.54569 2.11055-4.54569 4.71405 0 1.25024.47892 2.44925 1.3314 3.33335z" opacity=".15"/><path clip-rule="evenodd" d="m7.54569 4.75c-2.07083 0-3.79569 1.74882-3.79569 3.96405 0 1.05995.40628 2.07125 1.12128 2.81275l7.12872 7.3927 7.1287-7.3927c.715-.7415 1.1213-1.7528 1.1213-2.81275 0-2.21523-1.7249-3.96405-3.7957-3.96405-.9977 0-1.9603.41076-2.6744 1.15131l-1.24 1.28596c-.1414.14659-.3363.2294-.5399.2294s-.3985-.08281-.5399-.2294l-1.24-1.28596c-.71412-.74055-1.67672-1.15131-2.67441-1.15131zm-5.29569 3.96405c0-2.99177 2.34548-5.46405 5.29569-5.46405 1.41348 0 2.76331.58256 3.75421 1.61011l.7001.72608.7001-.72608.5249.50608-.5249-.50608c.9909-1.02755 2.3407-1.61011 3.7542-1.61011 2.9502 0 5.2957 2.47228 5.2957 5.46405 0 1.44055-.5516 2.82735-1.5415 3.85395l-7.6686 7.9526c-.1414.1466-.3363.2294-.5399.2294s-.3985-.0828-.5399-.2294l-7.66858-7.9526c-.98997-1.0266-1.54152-2.4134-1.54152-3.85395z" fill-rule="evenodd"/></g></svg>